#!OML:ASF H:\Terrain\Patient Classification 1\Terrain2\Thursday\justin.ASF
:FULLY-SPECIFIED
:DEGREES
4058
root 21.2582 17.5912 0.321331 -303.278 -91.7746 305.886
lowerback 8.26594 -0.907797 -2.33736
upperback 2.64863 -1.4214 2.69714
thorax -1.76375 -0.757891 4.24815
lowerneck -13.3358 -0.590784 -10.6189
upperneck 39.3469 -1.68032 5.2064
head 16.5171 -2.18607 3.75267
rclavicle -1.31198e-014 -5.56597e-015
rhumerus -34.0722 -13.1734 -76.9957
rradius 31.9578
rwrist -10.0988
rhand -19.8817 10.0997
rfingers 7.12502
rthumb 6.45403 -19.782
lclavicle -1.31198e-014 -5.56597e-015
lhumerus -32.3438 9.26656 77.7622
lradius 37.6143
lwrist 7.60348
lhand -21.4507 21.8814
lfingers 7.12502
lthumb 4.9392 -308.196
rfemur -16.4734 -5.33993 22.2469
rtibia 40.0496
rfoot -21.5592 0.462878
rtoes 19.6444
lfemur -9.92679 362.105 -19.7306
ltibia 32.1249
lfoot -17.1755 -10.1814
ltoes 10.3123
4059
root 21.2651 17.5921 0.310016 -309.226 -91.495 311.927
lowerback 8.54672 -0.830479 -1.75366
upperback 2.61512 -1.27416 2.7347
thorax -1.97983 -0.680886 3.95036
lowerneck -13.1842 -0.698251 -10.7591
upperneck 39.1143 -1.87051 5.40885
head 16.3817 -2.24274 3.8292
rclavicle 8.54774e-015 -3.4191e-014
rhumerus -34.2994 -13.4838 -76.923
rradius 32.0238
rwrist -10.118
rhand -19.6571 10.0042
rfingers 7.12502
rthumb 6.67089 -19.8707
lclavicle 8.54774e-015 -3.4191e-014
lhumerus -32.3361 8.62505 78.1541
lradius 37.6482
lwrist 7.29749
lhand -21.849 21.7797
lfingers 7.12502
lthumb 4.55458 -308.289
rfemur -16.2069 -4.92553 22.6684
rtibia 39.4236
rfoot -21.7213 0.155056
rtoes 19.5438
lfemur -10.7483 361.52 -19.4093
ltibia 33.4304
lfoot -16.7917 -9.60756
ltoes 9.44289
4060
root 21.2706 17.5918 0.302569 -336.134 -91.0004 338.813
lowerback 8.88416 -0.852675 -0.626588
upperback 2.64864 -1.21295 2.81525
thorax -2.1592 -0.652386 3.3979
lowerneck -13.0682 -0.783554 -10.803
upperneck 38.8942 -2.04058 5.57355
head 16.2588 -2.28381 3.87488
rclavicle -1.31198e-014 -8.74653e-015
rhumerus -34.4271 -13.864 -76.9761
rradius 32.0442
rwrist -10.0068
rhand -19.5842 10.1501
rfingers 7.12502
rthumb 6.74117 -19.7226
lclavicle -1.31198e-014 -8.74653e-015
lhumerus -32.3339 8.19242 78.3107
lradius 37.6421
lwrist 6.76262
lhand -21.909 21.6895
lfingers 7.12502
lthumb 4.49661 -308.378
rfemur -15.7927 -5.02183 23.5258
rtibia 38.7221
rfoot -21.638 0.186458
rtoes 18.6568
lfemur -11.5539 361.043 -18.5825
ltibia 34.9804
lfoot -16.3456 -9.58069
ltoes 9.91979
4061
root 21.2815 17.5983 0.290607 -371.014 -90.9075 373.821
lowerback 9.0857 -1.03918 0.0891737
upperback 2.73962 -1.40324 2.95537
thorax -2.17782 -0.752955 3.16316
lowerneck -13.4146 -0.757528 -10.752
upperneck 38.811 -1.90298 5.47438
head 16.2831 -2.21847 3.84523
rclavicle 2.40529e-014 -1.82882e-014
rhumerus -34.1127 -13.6759 -77.2867
rradius 31.9689
rwrist -9.86865
rhand -19.5004 10.2586
rfingers 7.12502
rthumb 6.82207 -19.6115
lclavicle 2.40529e-014 -1.82882e-014
lhumerus -32.2213 8.73459 78.2483
lradius 37.5201
lwrist 6.03672
lhand -21.2436 21.4051
lfingers 7.12502
lthumb 5.13915 -308.677
rfemur -15.6126 -5.20797 24.2165
rtibia 38.015
rfoot -21.4729 0.446269
rtoes 18.5185
lfemur -12.6806 360.688 -17.9014
ltibia 36.7846
lfoot -15.8801 -9.69501
ltoes 10.2839
4062
root 21.2979 17.608 0.273063 -386.104 -91.0472 389.057
lowerback 9.33808 -1.09628 0.325682
upperback 2.8252 -1.45999 3.11479
thorax -2.2268 -0.785967 3.20772
lowerneck -13.7495 -0.756746 -10.5921
upperneck 38.7068 -1.76042 5.18923
head 16.2918 -2.15704 3.71339
rclavicle -3.97569e-016 8.74653e-015
rhumerus -33.7394 -13.1699 -77.5639
rradius 31.8925
rwrist -10.0719
rhand -19.58 10.2552
rfingers 7.12502
rthumb 6.74525 -19.6173
lclavicle -3.97569e-016 8.74653e-015
lhumerus -32.0469 9.01544 78.4797
lradius 37.4379
lwrist 5.44429
lhand -20.9173 21.3666
lfingers 7.12502
lthumb 5.45422 -308.724
rfemur -15.5029 -5.0474 24.6084
rtibia 37.3588
rfoot -21.2595 0.66331
rtoes 20.2857
lfemur -14.0117 360.564 -17.4855
ltibia 38.7992
lfoot -14.8916 -9.7585
ltoes 11.1246
4063
root 21.3171 17.6112 0.255637 -400.695 -91.3049 403.843
lowerback 9.56689 -1.02813 0.795546
upperback 2.8699 -1.32597 3.21601
thorax -2.32157 -0.722513 3.03895
lowerneck -13.8878 -0.852577 -10.3121
upperneck 38.5177 -1.83989 4.93996
head 16.2316 -2.16257 3.53487
rclavicle 4.37326e-015 3.73715e-014
rhumerus -33.5186 -12.8377 -77.8172
rradius 31.8669
rwrist -10.5228
rhand -19.7899 10.2916
rfingers 7.12502
rthumb 6.54261 -19.5873
lclavicle 4.37326e-015 3.73715e-014
lhumerus -31.7646 8.5999 78.862
lradius 37.3522
lwrist 4.9757
lhand -20.9336 21.3577
lfingers 7.12502
lthumb 5.43842 -308.732
rfemur -15.5353 -4.98126 25.125
rtibia 36.731
rfoot -20.6862 0.897384
rtoes 21.2635
lfemur -15.5513 360.75 -16.9113
ltibia 41.0026
lfoot -13.352 -9.97775
ltoes 12.2551
4064
root 21.3352 17.6183 0.24273 -408.521 -91.448 411.868
lowerback 9.76293 -0.973466 1.23337
upperback 2.8862 -1.2099 3.19775
thorax -2.42721 -0.666038 2.76469
lowerneck -13.8562 -0.933165 -9.96462
upperneck 38.3171 -1.99647 4.81139
head 16.1296 -2.17833 3.3838
rclavicle -1.47101e-014 -1.43125e-014
rhumerus -33.4208 -12.8371 -78.0538
rradius 31.8729
rwrist -10.7532
rhand -20.0586 10.4559
rfingers 7.12502
rthumb 6.28321 -19.4309
lclavicle -1.47101e-014 -1.43125e-014
lhumerus -31.5602 8.00957 79.1742
lradius 37.3064
lwrist 4.75667
lhand -20.9853 21.0984
lfingers 7.12502
lthumb 5.38857 -308.99
rfemur -15.5874 -5.04936 25.4509
rtibia 36.1175
rfoot -20.253 1.06639
rtoes 21.4374
lfemur -17.2285 360.693 -16.5362
ltibia 43.3988
lfoot -11.9952 -10.208
ltoes 11.6062
